# xmcd CD database file
#
# Track frame offsets:
#	150
#	26102
#	43680
#	62177
#	95232
#	119920
#	137902
#	158120
#	179382
#	202125
#
# Disc length: 2888 seconds
#
# Revision: 7
# Processed by: cddbd v1.5.1PL0 Copyright (c) Steve Scherf et al.
# Submitted via: CDex 1.51
#
DISCID=a00b460a
DTITLE=??? - ????
DYEAR=2002
DGENRE=Merengue
TTITLE0=??
TTITLE1=??
TTITLE2=?
TTITLE3=????
TTITLE4=???
TTITLE5=?????
TTITLE6=???????????????????
TTITLE7=???????????
TTITLE8=???????????
TTITLE9=??????
EXTD=YEAR: 2002
EXTT0=
EXTT1=
EXTT2=
EXTT3=
EXTT4=
EXTT5=
EXTT6=
EXTT7=
EXTT8=
EXTT9=
PLAYORDER=
